<svg id="Layer_1" data-name="Layer 1" xmlns="http://www.w3.org/2000/svg" viewBox="0 0 87.79 56"><defs><style>.cls-1,.cls-2{fill:#00dbff;}.cls-2{font-size:31.82px;font-family:SegoeScript, Segoe Script;}</style></defs><title>logo</title><path class="cls-1" d="M41.89,30.58a13,13,0,0,1-1.26-.36c-.3.7-.61,1.39-.94,2.09a42.49,42.49,0,0,1-4,6.91c-1.46,2-2.41,2.55-2.69,2.49s-.2-.15-.33-.51c-.5-1.33-1-2.91-1.42-4.59a45.69,45.69,0,0,0-2.62-7.55c-1.35-2.7-3-4-5-4H23.5C21.56,25,20,26.29,18.58,29a46.54,46.54,0,0,0-2.76,7.48c-.52,1.69-1,3.28-1.54,4.63-.12.29-.15.49-.37.52s-.88,0-2.67-2.5a41.44,41.44,0,0,1-3.88-6.89C4.55,26,2.82,19.48,2.85,15.11A10.63,10.63,0,0,1,13.63,4.4a13.13,13.13,0,0,1,6.12,2c.3.19.73.51,1.15.81l.48.35a19.45,19.45,0,0,0,1.93,1.24,9.92,9.92,0,0,0,1.18.6,14.2,14.2,0,0,0,5.28,1.05,14,14,0,0,0,3.14-.29s.28-.07.27-.14S32.9,10,32.9,10a32,32,0,0,1-5.45-.81,6.93,6.93,0,0,1-2.54-1.07A8.59,8.59,0,0,1,26.78,7c2-1,4.73-2.41,7-2.39a10.6,10.6,0,0,1,10.54,9.33,12.09,12.09,0,0,1,1.42.25l.49.12a12.61,12.61,0,0,0-3.37-7.54A12.4,12.4,0,0,0,33.8,2.83c-2.76,0-5.73,1.49-7.91,2.59a12.22,12.22,0,0,1-2.19,1,12.9,12.9,0,0,1-2.18-1c-2.15-1.14-5.11-2.7-7.88-2.72A12.36,12.36,0,0,0,4.52,6.42,12.53,12.53,0,0,0,1,15.09C1,19.76,2.72,26.4,5.67,32.87a42.84,42.84,0,0,0,4,7.19c1.6,2.18,3,3.24,4.19,3.25A2.21,2.21,0,0,0,16,41.66c.55-1.41,1.05-3,1.58-4.74,1.4-4.54,3.14-10.18,5.89-10.16h.17c1.23,0,2.31,1,3.33,3a43.45,43.45,0,0,1,2.5,7.27c.49,1.71,1,3.32,1.47,4.71A2.2,2.2,0,0,0,33,43.45c1.22,0,2.6-1.05,4.22-3.24A42.88,42.88,0,0,0,41.39,33c.36-.77.7-1.54,1-2.31Z" transform="translate(-1 -2.67)"/><text class="cls-2" transform="translate(36.46 39.53) rotate(0.81) scale(0.69 1)">iller</text></svg>