<?xml version="1.0" encoding="utf-8"?>
<!-- Generator: Adobe Illustrator 22.0.0, SVG Export Plug-In . SVG Version: 6.00 Build 0)  -->
<svg version="1.1" id="Layer_1" xmlns="http://www.w3.org/2000/svg" xmlns:xlink="http://www.w3.org/1999/xlink" x="0px" y="0px"
	 viewBox="0 0 90 50" style="enable-background:new 0 0 90 50;" xml:space="preserve">
<style type="text/css">
	.st0{fill:url(#SVGID_1_);}
	.st1{fill:#00DBFF;}
	.st2{font-family:'SegoeScript';}
	.st3{font-size:29.975px;}
</style>
<g>
	<linearGradient id="SVGID_1_" gradientUnits="userSpaceOnUse" x1="4.4062" y1="24.5911" x2="47.027" y2="24.5911">
		<stop  offset="0" style="stop-color:#00FFCB"/>
		<stop  offset="0.6299" style="stop-color:#08E5EF"/>
		<stop  offset="1" style="stop-color:#0CDAFF"/>
	</linearGradient>
	<path class="st0" d="M43.9,9.2c-2.2-2.3-5.2-3.6-8.6-3.7c-2.6,0-5.4,1.4-7.4,2.4c-0.7,0.4-1.8,0.9-2.1,0.9c-0.3,0-1.3-0.6-2-1
		c-2-1.1-4.8-2.5-7.4-2.6c-3.3,0-6.4,1.2-8.6,3.5c-2.1,2.2-3.3,5.1-3.3,8.2c0,4.4,1.6,10.7,4.4,16.7c1.2,2.7,2.6,5.1,3.8,6.8
		c1.5,2.1,2.8,3.1,3.9,3.1c0.5,0,1.5-0.2,2-1.6c0.5-1.3,1-2.8,1.5-4.5c1.3-4.3,3-9.6,5.6-9.6l0.2,0c1.2,0,2.2,0.9,3.1,2.9
		c0.9,1.9,1.7,4.4,2.4,6.8c0.5,1.6,0.9,3.1,1.4,4.4c0.5,1.4,1.4,1.6,1.9,1.6c1.2,0,2.5-1,4-3c1.3-1.7,2.6-4.1,3.9-6.8
		c0.3-0.7,0.7-1.5,1-2.2c-0.2,0-0.3-0.1-0.5-0.1c-0.4-0.1-0.8-0.2-1.2-0.3c-0.3,0.7-0.6,1.3-0.9,2c-1.2,2.6-2.5,4.9-3.7,6.5
		c-1.4,1.9-2.3,2.4-2.5,2.3c-0.2,0-0.2-0.1-0.3-0.5c-0.5-1.3-0.9-2.7-1.3-4.3c-0.7-2.5-1.4-5.1-2.5-7.1c-1.3-2.5-2.8-3.8-4.7-3.8
		l-0.2,0c-1.8,0-3.3,1.2-4.6,3.7c-1,2-1.8,4.6-2.6,7.1c-0.5,1.6-1,3.1-1.5,4.4c-0.1,0.3-0.1,0.5-0.3,0.5c-0.2,0-0.8,0-2.5-2.4
		c-1.2-1.6-2.5-3.9-3.6-6.5c-2.6-5.8-4.3-12-4.3-16.1C6.2,12.1,10,7,16.3,7c1.6,0,3.8,0.7,5.8,1.9c0.3,0.2,0.7,0.5,1.1,0.8
		c0.2,0.1,0.3,0.2,0.5,0.3c0.5,0.3,1.1,0.8,1.8,1.2c0.3,0.2,0.7,0.4,1.1,0.6c1.6,0.6,3.3,1,5,1c1.8,0,2.9-0.3,3-0.3
		c0,0,0.3-0.1,0.3-0.1c0-0.1-0.3-0.1-0.3-0.1c0,0-2.7-0.1-5.1-0.8c-1.1-0.3-2.4-0.8-2.4-1c0-0.2,1.4-0.9,1.8-1.1
		c1.9-1,4.5-2.3,6.6-2.3c5.7,0,9.3,4.3,9.9,8.8c0.4,0.1,0.9,0.1,1.3,0.2c0.2,0,0.3,0.1,0.5,0.1C46.8,13.6,45.7,11.2,43.9,9.2z"/>
	<text transform="matrix(0.6877 9.670481e-03 -1.406002e-02 0.9999 38.7545 42.6253)" class="st1 st2 st3">iller</text>
</g>
</svg>
