<?xml version="1.0" encoding="utf-8"?>
<!-- Generator: Adobe Illustrator 18.0.0, SVG Export Plug-In . SVG Version: 6.00 Build 0)  -->
<!DOCTYPE svg PUBLIC "-//W3C//DTD SVG 1.1//EN" "http://www.w3.org/Graphics/SVG/1.1/DTD/svg11.dtd">
<svg version="1.1" id="Layer_1" xmlns="http://www.w3.org/2000/svg" xmlns:xlink="http://www.w3.org/1999/xlink" x="0px" y="0px"
	 width="1400px" height="980px" viewBox="0 0 1400 980" enable-background="new 0 0 1400 980" xml:space="preserve">
<rect fill="#FFFFFF" width="1400" height="980"/>
<g>
	<g>
		<path fill="#252A30" d="M512.7,612.9h-54.6V363.7h54.6V612.9z M467.5,603.5h35.8V373.1h-35.8V603.5z"/>
	</g>
	<g>
		<path fill="#252A30" d="M507.9,373.1h-45l-3.9-7.3c0.1-0.1,10.9-16.5,10.9-44.1v-18.1l-14.2-20.2l-0.8-3.7l18.6-89.2l4.6-3.7h14.6
			l4.6,3.7l18.6,89.2l-0.8,3.7l-14.2,20.2v18.1c0,27.6,10.8,44,10.9,44.1L507.9,373.1z M470.7,363.7h29.4c-3.7-8-8.6-22.4-8.6-42.1
			v-21.2h2.4l-1.5-1.1l13.9-19.8l-17.4-83.4h-7l-17.4,83.4l13.9,19.8l-1.5,1.1h2.4v21.2C479.3,341.2,474.4,355.6,470.7,363.7z"/>
	</g>
	<g>
		<path fill="#252A30" d="M492.7,789.8h-14.6l-4.6-3.7L454.9,697l0.8-3.7l14.2-20.2V655c0-27.9-10.8-43.9-10.9-44.1l3.9-7.3h45
			l3.9,7.3c-0.1,0.1-10.9,16.5-10.9,44.1v18.1l14.2,20.2l0.8,3.7l-18.6,89.2L492.7,789.8z M481.9,780.5h7l17.4-83.4l-13.9-19.8
			l1.5-1.1h-2.4V655c0-19.6,4.9-34,8.6-42.1h-29.4c3.7,8,8.6,22.4,8.6,42.1v21.2h-2.4l1.5,1.1L464.5,697L481.9,780.5z"/>
	</g>
	<g>
		<path fill="#252A30" d="M508,586.7h-45.2l-4.7-4.7V395.5l4.7-4.7H508l4.7,4.7V582L508,586.7z M467.5,577.3h35.8V400.2h-35.8V577.3
			z"/>
	</g>
	<g>
		
			<rect x="469.4" y="390.1" transform="matrix(0.6254 0.7803 -0.7803 0.6254 493.2841 -218.4318)" fill="#252A30" width="9.4" height="29"/>
	</g>
	<g>
		
			<rect x="481.1" y="387.4" transform="matrix(0.6182 0.786 -0.786 0.6182 512.895 -222.7904)" fill="#252A30" width="9.4" height="58.4"/>
	</g>
	<g>
		
			<rect x="481.1" y="408.3" transform="matrix(0.6182 0.786 -0.786 0.6182 529.3858 -214.78)" fill="#252A30" width="9.4" height="58.4"/>
	</g>
	<g>
		
			<rect x="481.1" y="429.3" transform="matrix(0.6182 0.786 -0.786 0.6182 545.8768 -206.7695)" fill="#252A30" width="9.4" height="58.4"/>
	</g>
	<g>
		
			<rect x="481.1" y="450.3" transform="matrix(0.6182 0.786 -0.786 0.6182 562.3677 -198.7589)" fill="#252A30" width="9.4" height="58.4"/>
	</g>
	<g>
		
			<rect x="481.1" y="471.3" transform="matrix(0.6182 0.786 -0.786 0.6182 578.8585 -190.7485)" fill="#252A30" width="9.4" height="58.4"/>
	</g>
	<g>
		
			<rect x="481.1" y="492.3" transform="matrix(0.6182 0.786 -0.786 0.6182 595.3497 -182.7379)" fill="#252A30" width="9.4" height="58.4"/>
	</g>
	<g>
		
			<rect x="481.1" y="513.2" transform="matrix(0.6182 0.786 -0.786 0.6182 611.8405 -174.7275)" fill="#252A30" width="9.4" height="58.4"/>
	</g>
	<g>
		
			<rect x="481.1" y="534.2" transform="matrix(0.6182 0.786 -0.786 0.6182 628.3315 -166.717)" fill="#252A30" width="9.4" height="58.4"/>
	</g>
	<g>
		
			<rect x="494" y="561.5" transform="matrix(0.6182 0.786 -0.786 0.6182 641.7594 -172.7839)" fill="#252A30" width="9.4" height="25.4"/>
	</g>
</g>
<g>
	<g>
		
			<rect x="259.7" y="542" transform="matrix(0.6182 0.786 -0.786 0.6182 540.3431 5.6322)" fill="#252A30" width="9.4" height="33.9"/>
	</g>
	<g>
		
			<rect x="269.3" y="543.3" transform="matrix(0.6182 0.786 -0.786 0.6182 554.5658 3.2189)" fill="#252A30" width="9.4" height="58.4"/>
	</g>
	<g>
		
			<rect x="269.3" y="564.2" transform="matrix(0.6182 0.786 -0.786 0.6182 571.0566 11.2293)" fill="#252A30" width="9.4" height="58.4"/>
	</g>
	<g>
		
			<rect x="269.3" y="585.2" transform="matrix(0.6182 0.786 -0.786 0.6182 587.5477 19.2399)" fill="#252A30" width="9.4" height="58.4"/>
	</g>
	<g>
		
			<rect x="269.3" y="606.2" transform="matrix(0.6182 0.786 -0.786 0.6182 604.0385 27.2503)" fill="#252A30" width="9.4" height="58.4"/>
	</g>
	<g>
		
			<rect x="269.3" y="627.2" transform="matrix(0.6182 0.786 -0.786 0.6182 620.5295 35.2608)" fill="#252A30" width="9.4" height="58.4"/>
	</g>
	<g>
		
			<rect x="269.3" y="648.2" transform="matrix(0.6182 0.786 -0.786 0.6182 637.0205 43.2714)" fill="#252A30" width="9.4" height="58.4"/>
	</g>
	<g>
		
			<rect x="269.3" y="669.1" transform="matrix(0.6182 0.786 -0.786 0.6182 653.5112 51.2818)" fill="#252A30" width="9.4" height="58.4"/>
	</g>
	<g>
		
			<rect x="269.3" y="690.1" transform="matrix(0.6182 0.786 -0.786 0.6182 670.0022 59.2923)" fill="#252A30" width="9.4" height="58.4"/>
	</g>
	<g>
		
			<rect x="269.3" y="711.1" transform="matrix(0.6182 0.786 -0.786 0.6182 686.4932 67.3028)" fill="#252A30" width="9.4" height="58.4"/>
	</g>
	<g>
		
			<rect x="269.3" y="732.1" transform="matrix(0.6182 0.786 -0.786 0.6182 702.9842 75.3133)" fill="#252A30" width="9.4" height="58.4"/>
	</g>
	<g>
		
			<rect x="277.9" y="757.2" transform="matrix(0.6182 0.786 -0.786 0.6182 717.4454 73.9956)" fill="#252A30" width="9.4" height="36.5"/>
	</g>
	<g>
		<path fill="#252A30" d="M285.7,791.5h-23.5c-8.6,0-15.6-7-15.6-15.6V542.2h54.6v233.7C301.3,784.5,294.3,791.5,285.7,791.5z
			 M256.1,551.6v224.3c0,3.4,2.8,6.2,6.2,6.2h23.5c3.4,0,6.2-2.8,6.2-6.2V551.6H256.1z"/>
	</g>
	<g>
		<path fill="#252A30" d="M296.6,551.6h-45.3l-4.4-6.4l10.9-27.6c0-10.3-0.2-104.9,0-158.2c0.2-35.4-20.1-48.2-34-52.9
			c-4.6,4.8-11.3,7.2-18,6.5l-25.1-2.8c-11.8-1.3-20.4-12.1-19-23.9l1.2-10.7c1.2-10.9,10.5-19.2,21.4-19.2c0.8,0,1.6,0,2.5,0.1
			l25.1,2.8c8.4,1,15.4,6.6,18,14.5c31.9,8.6,46.3,30.2,52.8,47.1c6.9,17.9,6.5,34,6.4,35.7v160.9l11.7,27.6L296.6,551.6z
			 M258.2,542.2h31.3l-9.3-21.9l-0.4-1.8l0-162.2c0-0.1,0.7-15.5-5.9-32.3c-8.6-22-25-36-48.8-41.7l-3.5-3.7
			c-1-5.3-5.3-9.3-10.6-9.9l-25.1-2.8c-0.5-0.1-0.9-0.1-1.4-0.1c-6.2,0-11.4,4.7-12.1,10.8l-1.2,10.7c-0.8,6.7,4.1,12.7,10.8,13.5
			l25.1,2.8c4.5,0.5,8.9-1.5,11.4-5.2l5.1-1.9c7.6,2.1,18.6,6.7,27.7,16.4c10.7,11.5,16.2,27.1,16.1,46.5c-0.3,56.1,0,158,0,159
			l-0.3,1.7L258.2,542.2z"/>
	</g>
</g>
<g>
	<g>
		
			<rect x="360.3" y="364.9" transform="matrix(0.6182 0.786 -0.786 0.6182 439.5162 -141.058)" fill="#252A30" width="9.4" height="33.9"/>
	</g>
	<g>
		
			<rect x="369.9" y="366.1" transform="matrix(0.6182 0.786 -0.786 0.6182 453.739 -143.4715)" fill="#252A30" width="9.4" height="58.4"/>
	</g>
	<g>
		
			<rect x="369.9" y="387.1" transform="matrix(0.6182 0.786 -0.786 0.6182 470.2298 -135.4611)" fill="#252A30" width="9.4" height="58.4"/>
	</g>
	<g>
		
			<rect x="369.9" y="408.1" transform="matrix(0.6182 0.786 -0.786 0.6182 486.721 -127.4504)" fill="#252A30" width="9.4" height="58.4"/>
	</g>
	<g>
		
			<rect x="369.9" y="429.1" transform="matrix(0.6182 0.786 -0.786 0.6182 503.2117 -119.44)" fill="#252A30" width="9.4" height="58.4"/>
	</g>
	<g>
		
			<rect x="369.9" y="450.1" transform="matrix(0.6182 0.786 -0.786 0.6182 519.7027 -111.4295)" fill="#252A30" width="9.4" height="58.4"/>
	</g>
	<g>
		
			<rect x="369.9" y="471" transform="matrix(0.6182 0.786 -0.786 0.6182 536.1937 -103.419)" fill="#252A30" width="9.4" height="58.4"/>
	</g>
	<g>
		
			<rect x="369.9" y="492" transform="matrix(0.6182 0.786 -0.786 0.6182 552.6844 -95.4086)" fill="#252A30" width="9.4" height="58.4"/>
	</g>
	<g>
		
			<rect x="369.9" y="513" transform="matrix(0.6182 0.786 -0.786 0.6182 569.1757 -87.398)" fill="#252A30" width="9.4" height="58.4"/>
	</g>
	<g>
		
			<rect x="369.9" y="534" transform="matrix(0.6182 0.786 -0.786 0.6182 585.6664 -79.3876)" fill="#252A30" width="9.4" height="58.4"/>
	</g>
	<g>
		
			<rect x="369.9" y="555" transform="matrix(0.6182 0.786 -0.786 0.6182 602.1574 -71.377)" fill="#252A30" width="9.4" height="58.4"/>
	</g>
	<g>
		
			<rect x="378.4" y="580.1" transform="matrix(0.6182 0.786 -0.786 0.6182 616.6186 -72.6948)" fill="#252A30" width="9.4" height="36.5"/>
	</g>
	<g>
		<path fill="#252A30" d="M401.8,614.3h-54.6V365.1h54.6V614.3z M356.6,604.9h35.8V374.5h-35.8V604.9z"/>
	</g>
	<g>
		<path fill="#252A30" d="M397.2,374.5h-45.3l-4.3-6.5l11.7-27.6v-82.8l-14.5-12.1l-1.7-3.6V185l6.6-4.3c1.7,0.8,40.8,19,40.8,57.2
			v30.9c0.2,48.8,0.1,67.6,0,71.7l10.9,27.6L397.2,374.5z M359,365.1h31.3l-8.7-22l-0.3-1.8c0-0.2,0.3-16.5,0-72.5v-30.9
			c0-23.4-18.4-38.4-28.7-44.9v46.7l14.5,12.1l1.7,3.6v86l-0.4,1.8L359,365.1z"/>
	</g>
	<g>
		<path fill="#252A30" d="M365.5,796.7l-6.9-4.1V724c-0.2-50.6,0-79.7,0-85.1l-10.9-27.6l4.4-6.4h45.3l4.3,6.5L389.8,639v84.1
			l17.7,45.9l-2.1,5.8L365.5,796.7z M358.9,614.3l8.7,22l0.3,1.8c0,0.3-0.3,29.9,0,85.9v60.6l29.4-16.1l-16.5-42.9l-0.3-1.7v-86
			l0.4-1.8l9.3-21.9H358.9z"/>
	</g>
</g>
<g>
	<g>
		<g>
			
				<rect x="567.4" y="542" transform="matrix(0.6182 0.786 -0.786 0.6182 657.828 -236.23)" fill="#252A30" width="9.4" height="33.9"/>
		</g>
		<g>
			
				<rect x="577" y="543.3" transform="matrix(0.6182 0.786 -0.786 0.6182 672.0507 -238.6433)" fill="#252A30" width="9.4" height="58.4"/>
		</g>
		<g>
			
				<rect x="577" y="564.2" transform="matrix(0.6182 0.786 -0.786 0.6182 688.5414 -230.6329)" fill="#252A30" width="9.4" height="58.4"/>
		</g>
		<g>
			
				<rect x="577" y="585.2" transform="matrix(0.6182 0.786 -0.786 0.6182 705.0327 -222.6223)" fill="#252A30" width="9.4" height="58.4"/>
		</g>
		<g>
			
				<rect x="577" y="606.2" transform="matrix(0.6182 0.786 -0.786 0.6182 721.5234 -214.6119)" fill="#252A30" width="9.4" height="58.4"/>
		</g>
		<g>
			
				<rect x="577" y="627.2" transform="matrix(0.6182 0.786 -0.786 0.6182 738.0144 -206.6014)" fill="#252A30" width="9.4" height="58.4"/>
		</g>
		<g>
			
				<rect x="577" y="648.2" transform="matrix(0.6182 0.786 -0.786 0.6182 754.5054 -198.5908)" fill="#252A30" width="9.4" height="58.4"/>
		</g>
		<g>
			
				<rect x="577" y="669.1" transform="matrix(0.6182 0.786 -0.786 0.6182 770.9961 -190.5804)" fill="#252A30" width="9.4" height="58.4"/>
		</g>
		<g>
			
				<rect x="577" y="690.1" transform="matrix(0.6182 0.786 -0.786 0.6182 787.4871 -182.5699)" fill="#252A30" width="9.4" height="58.4"/>
		</g>
		<g>
			
				<rect x="577" y="711.1" transform="matrix(0.6182 0.786 -0.786 0.6182 803.9781 -174.5594)" fill="#252A30" width="9.4" height="58.4"/>
		</g>
		<g>
			
				<rect x="577" y="732.1" transform="matrix(0.6182 0.786 -0.786 0.6182 820.4691 -166.5489)" fill="#252A30" width="9.4" height="58.4"/>
		</g>
		<g>
			
				<rect x="585.6" y="757.2" transform="matrix(0.6182 0.786 -0.786 0.6182 834.9303 -167.8666)" fill="#252A30" width="9.4" height="36.5"/>
		</g>
		<g>
			<path fill="#252A30" d="M593.4,791.5h-23.5c-8.6,0-15.6-7-15.6-15.6V542.2H609v233.7C609,784.5,602,791.5,593.4,791.5z
				 M563.8,551.6v224.3c0,3.4,2.8,6.2,6.2,6.2h23.5c3.4,0,6.2-2.8,6.2-6.2V551.6H563.8z"/>
		</g>
		<g>
			<path fill="#252A30" d="M604.3,551.6H559l-4.4-6.4l11-27.7l5.5-174.4l4.7-4.5h11l4.7,4.5l5.4,174.4l11.7,27.6L604.3,551.6z
				 M565.9,542.2h31.3l-9.3-21.9l-0.4-1.7l-5.3-170.7h-1.9L575,518.6l-0.3,1.6L565.9,542.2z"/>
		</g>
	</g>
	<g>
		<path fill="#252A30" d="M586.9,347.9h-11.8c-17.9,0-32.5-14.6-32.5-32.5V293c0-17.9,14.6-32.5,32.5-32.5h11.8
			c17.9,0,32.5,14.6,32.5,32.5v22.4C619.4,333.4,604.8,347.9,586.9,347.9z M575.1,269.9c-12.7,0-23.1,10.4-23.1,23.1v22.4
			c0,12.7,10.4,23.1,23.1,23.1h11.8c12.7,0,23.1-10.4,23.1-23.1V293c0-12.7-10.4-23.1-23.1-23.1H575.1z"/>
	</g>
	<g>
		<path fill="#252A30" d="M600.7,293.5v21.9c0,7.6-6.2,13.7-13.7,13.7h-11.8c-1.3,0-2.5-0.2-3.7-0.5
			C579.3,319.1,591.5,304.4,600.7,293.5z"/>
	</g>
	<g>
		<path fill="#252A30" d="M575.5,278.1l-15,18v-4.2c0-7.6,6.2-13.7,13.7-13.7H575.5z"/>
	</g>
</g>
<g>
	<g>
		<g>
			
				<rect x="676.8" y="364.9" transform="matrix(0.6182 0.786 -0.786 0.6182 560.3653 -389.8459)" fill="#252A30" width="9.4" height="33.9"/>
		</g>
		<g>
			
				<rect x="686.4" y="366.1" transform="matrix(0.6182 0.786 -0.786 0.6182 574.5881 -392.2594)" fill="#252A30" width="9.4" height="58.4"/>
		</g>
		<g>
			
				<rect x="686.4" y="387.1" transform="matrix(0.6182 0.786 -0.786 0.6182 591.0789 -384.249)" fill="#252A30" width="9.4" height="58.4"/>
		</g>
		<g>
			
				<rect x="686.4" y="408.1" transform="matrix(0.6182 0.786 -0.786 0.6182 607.5701 -376.2384)" fill="#252A30" width="9.4" height="58.4"/>
		</g>
		<g>
			
				<rect x="686.4" y="429.1" transform="matrix(0.6182 0.786 -0.786 0.6182 624.0608 -368.228)" fill="#252A30" width="9.4" height="58.4"/>
		</g>
		<g>
			
				<rect x="686.4" y="450.1" transform="matrix(0.6182 0.786 -0.786 0.6182 640.5518 -360.2175)" fill="#252A30" width="9.4" height="58.4"/>
		</g>
		<g>
			
				<rect x="686.4" y="471" transform="matrix(0.6182 0.786 -0.786 0.6182 657.0428 -352.2069)" fill="#252A30" width="9.4" height="58.4"/>
		</g>
		<g>
			
				<rect x="686.4" y="492" transform="matrix(0.6182 0.786 -0.786 0.6182 673.5336 -344.1965)" fill="#252A30" width="9.4" height="58.4"/>
		</g>
		<g>
			
				<rect x="686.4" y="513" transform="matrix(0.6182 0.786 -0.786 0.6182 690.0248 -336.1859)" fill="#252A30" width="9.4" height="58.4"/>
		</g>
		<g>
			
				<rect x="686.4" y="534" transform="matrix(0.6182 0.786 -0.786 0.6182 706.5155 -328.1755)" fill="#252A30" width="9.4" height="58.4"/>
		</g>
		<g>
			
				<rect x="686.4" y="555" transform="matrix(0.6182 0.786 -0.786 0.6182 723.0065 -320.165)" fill="#252A30" width="9.4" height="58.4"/>
		</g>
		<g>
			
				<rect x="695" y="580.1" transform="matrix(0.6182 0.786 -0.786 0.6182 737.4677 -321.4827)" fill="#252A30" width="9.4" height="36.5"/>
		</g>
		<g>
			<path fill="#252A30" d="M718.4,614.3h-54.6V365.1h54.6V614.3z M673.2,604.9H709V374.5h-35.8V604.9z"/>
		</g>
		<g>
			<path fill="#252A30" d="M713.7,374.5h-45.3l-4.3-6.5L676,340l10.5-61.9l9.2-0.1l11.3,62l11.1,28L713.7,374.5z M675.6,365.1h31.3
				l-8.7-22l-0.3-0.9l-6.6-36.1l-6.1,36.1l-0.3,1.1L675.6,365.1z"/>
		</g>
		<g>
			<path fill="#252A30" d="M686.5,701.4l-11.3-62l-11.1-28l4.4-6.4h45.3l4.3,6.5l-11.9,27.9l-10.5,61.9L686.5,701.4z M675.4,614.3
				l8.7,22l0.3,0.9l6.6,36.1l6.1-36.1l0.3-1.1l9.3-21.9H675.4z"/>
		</g>
	</g>
	<g>
		<polygon fill="#252A30" points="686.4,278.9 686.4,265.8 688,262.2 717.7,236.4 717.5,243.2 686.1,211.5 691.2,212.5 664.4,218.3 
			687.7,203.8 692.8,204.9 724.1,236.6 723.9,243.4 694.2,269.3 695.8,265.8 695.8,278.9 		"/>
	</g>
	<g>
		<path fill="#252A30" d="M695.8,700.6v16.2l-4,4.6v0l-1.4,0.4c-0.5,0.1-1,0.3-1.5,0.5c-1,0.3-2.1,0.7-3.1,1.1c-2,0.8-4,1.6-6,2.6
			c-3.8,2-7.3,4.4-10.3,7.3c-1.5,1.5-2.8,3.1-4,4.8c-1.2,1.7-2.2,3.5-3,5.4c-0.9,1.9-1.5,3.9-2,6c-0.5,2.1-0.8,4.2-1,6.5
			c-0.1,1-0.1,2-0.1,3.1c0,1.1,0.1,2.1,0.2,3.2c0.2,2.1,0.7,4.2,1.4,6.2c0.7,2,1.6,4,2.7,5.8c1.1,1.8,2.4,3.6,3.9,5.3
			c1.5,1.7,3.2,3.2,5,4.7c1.8,1.5,3.7,2.8,5.7,4c2,1.3,4.1,2.4,6.2,3.4c2.1,1,4.3,2,6.6,2.8l0,0c-4.8-0.4-9.6-1.6-14.3-3.4
			c-2.3-0.9-4.6-2-6.8-3.2c-2.2-1.2-4.3-2.7-6.3-4.3c-2-1.6-3.9-3.5-5.5-5.6c-1.6-2.1-3.1-4.4-4.2-6.8c-1.2-2.4-2-5-2.6-7.7
			c-0.3-1.3-0.5-2.7-0.6-4c-0.2-1.3-0.2-2.7-0.2-4.1l0-0.9l0-0.5V754l0-0.2l0-0.2l0.1-2c0.1-1.3,0.3-2.6,0.5-4
			c0.5-2.6,1.1-5.3,2.1-7.8c1.9-5.1,4.9-9.9,8.8-13.8c1.9-1.9,4-3.7,6.2-5.3c2.2-1.5,4.5-2.9,6.9-4c2.4-1.1,4.9-2.1,7.4-2.9
			c1.3-0.4,2.5-0.7,3.8-1c0.6-0.1,1.3-0.3,2-0.4c0.7-0.1,1.3-0.2,2.1-0.3l0,0l-4,4.6v-16.2H695.8z"/>
	</g>
</g>
<g>
	<g>
		<g>
			<g>
				
					<rect x="790.3" y="542" transform="matrix(0.6182 0.786 -0.786 0.6182 742.9314 -411.4295)" fill="#252A30" width="9.4" height="33.9"/>
			</g>
			<g>
				
					<rect x="799.9" y="543.3" transform="matrix(0.6182 0.786 -0.786 0.6182 757.1542 -413.843)" fill="#252A30" width="9.4" height="58.4"/>
			</g>
			<g>
				
					<rect x="799.9" y="564.2" transform="matrix(0.6182 0.786 -0.786 0.6182 773.645 -405.8326)" fill="#252A30" width="9.4" height="58.4"/>
			</g>
			<g>
				
					<rect x="799.9" y="585.2" transform="matrix(0.6182 0.786 -0.786 0.6182 790.1362 -397.822)" fill="#252A30" width="9.4" height="58.4"/>
			</g>
			<g>
				
					<rect x="799.9" y="606.2" transform="matrix(0.6182 0.786 -0.786 0.6182 806.6269 -389.8116)" fill="#252A30" width="9.4" height="58.4"/>
			</g>
			<g>
				
					<rect x="799.9" y="627.2" transform="matrix(0.6182 0.786 -0.786 0.6182 823.1179 -381.8011)" fill="#252A30" width="9.4" height="58.4"/>
			</g>
			<g>
				
					<rect x="799.9" y="648.2" transform="matrix(0.6182 0.786 -0.786 0.6182 839.6089 -373.7906)" fill="#252A30" width="9.4" height="58.4"/>
			</g>
			<g>
				
					<rect x="799.9" y="669.1" transform="matrix(0.6182 0.786 -0.786 0.6182 856.0996 -365.7802)" fill="#252A30" width="9.4" height="58.4"/>
			</g>
			<g>
				
					<rect x="799.9" y="690.1" transform="matrix(0.6182 0.786 -0.786 0.6182 872.5906 -357.7696)" fill="#252A30" width="9.4" height="58.4"/>
			</g>
			<g>
				
					<rect x="799.9" y="711.1" transform="matrix(0.6182 0.786 -0.786 0.6182 889.0816 -349.7591)" fill="#252A30" width="9.4" height="58.4"/>
			</g>
			<g>
				
					<rect x="799.9" y="732.1" transform="matrix(0.6182 0.786 -0.786 0.6182 905.5726 -341.7486)" fill="#252A30" width="9.4" height="58.4"/>
			</g>
			<g>
				
					<rect x="808.5" y="757.2" transform="matrix(0.6182 0.786 -0.786 0.6182 920.0338 -343.0663)" fill="#252A30" width="9.4" height="36.5"/>
			</g>
			<g>
				<path fill="#252A30" d="M816.3,791.5h-23.5c-8.6,0-15.6-7-15.6-15.6V542.2h54.6v233.7C831.9,784.5,824.9,791.5,816.3,791.5z
					 M786.7,551.6v224.3c0,3.4,2.8,6.2,6.2,6.2h23.5c3.4,0,6.2-2.8,6.2-6.2V551.6H786.7z"/>
			</g>
		</g>
	</g>
	<g>
		<path fill="#252A30" d="M827.2,551.6H782l-4.2-6.8l13.5-27.5V391.3l-49.4-101.2c-5.8-11.9-5.7-25.5,0.4-37.3
			c6.1-11.8,17.1-19.8,30.2-22l64.9-10.9l5.5,4.6v19l-4.7,4.7c-5.9,0-12.4,0.7-19.6,2c-13.3,2.5-24.5,10.9-30.6,22.9
			c-6.1,12-6.3,25.8-0.5,38L819,378l0.5,2v137.5l12.1,27.5L827.2,551.6z M789.5,542.2H820l-9.6-21.9l-0.4-1.9V381.1l-31.3-65.9
			c-7-14.8-6.8-31.7,0.6-46.3c7.5-14.7,21.1-24.8,37.3-27.9c5.9-1.1,11.4-1.8,16.6-2.1V230l-59.4,9.9c-10.1,1.7-18.7,7.9-23.4,17.1
			c-4.7,9.1-4.8,19.7-0.3,28.9l49.9,102.2l0.5,2.1v128.3l-0.5,2.1L789.5,542.2z"/>
	</g>
	<g>
		<path fill="#252A30" d="M848.5,249.4l-4.7-4.7v-21.7l4.7-4.7c1,0,23.6,0.1,37.9,11.9l-0.5,7.6
			C885.1,238.3,866.8,249.4,848.5,249.4z M853.2,227.9v11.8c7.9-0.9,15.6-3.9,20.8-6.3C866.7,229.7,858.3,228.4,853.2,227.9z"/>
	</g>
</g>
<g>
	<g>
		<path fill="#252A30" d="M927.9,791c-10.5,0-10.5,0-11.9-1.5l-0.7-0.7l-0.3-1c-13.2-38.7-29-100-29.4-172.3
			c-0.5-73.4,15.6-149.4,46.5-219.9l3.7-8.5l4.7,8c7.4,12.7,18.6,33.2,29.5,58.1l0.8,1.9l-0.8,1.9c-24.9,57-37.5,111.3-37.5,161.4
			c0,50.9,6.6,93.5,12.2,120.2c6,28.9,12.1,45.9,12.1,46l2.3,6.3L927.9,791z M922.7,781.6c1.4,0,3.2,0,5.2,0l17.9,0
			c-6-19.3-22.9-81.2-22.9-163.1c0-50.9,12.6-105.8,37.5-163.3c-8.4-19-16.8-35.2-23.5-47.1c-27.9,66.8-42.4,138.3-42,207.4
			C895.3,684.6,910,743.5,922.7,781.6z"/>
	</g>
	<g>
		<path fill="#252A30" d="M927.9,791c-10.5,0-10.5,0-11.9-1.5l-0.7-0.7l-0.3-1c-13.2-38.7-29-100-29.4-172.3
			c-0.2-28,2-56.5,6.6-84.8l0-4.3h51.4l0.3,5.3l-0.2,0.7c-7.6,29.9-11.4,58.8-11.4,86c0,97.3,24.1,165.6,24.4,166.3l2.3,6.3
			L927.9,791z M922.7,781.6c1.4,0,3.2,0,5.2,0l17.9,0c-6-19.3-22.9-81.2-22.9-163.1c0-26.2,3.5-54,10.3-82.6h-32.4
			c-4.1,26.6-6.1,53.4-5.9,79.7C895.3,684.6,910,743.5,922.7,781.6z"/>
	</g>
	<g>
		<path fill="#252A30" d="M1003.1,791l-31,0l2.3-6.3c0.2-0.7,24.4-69,24.4-166.3c0-77.9-30.6-151.8-56.2-200
			c-16.2-30.5-24.8-65-24.8-99.9v-43.7l7.6,5.9c0.1,0.1,10.9,8.4,26.6,16.6c14.3,7.5,35.7,16.4,56.6,16.4c21.3,0,39.6-8.5,51.2-15.6
			c1.7-1,3.6-1.6,5.6-1.6c3.8,0,7.3,2.1,9.2,5.4c1.9,3.3,1.9,7.2-0.1,10.6c-13.8,23.9-42.4,63-82.8,67.3
			c35.7,75.1,54.2,156.5,53.7,235.9c-0.4,72.3-16.2,133.6-29.4,172.3c-1,3.2-3.6,3.2-6.9,3.2L1003.1,791z M985.2,781.6l17.9,0
			c2,0,3.7,0,5.1,0c12.7-38.2,27.4-97.1,27.8-166.1c0.5-80.2-18.8-162.5-55.9-238l-3.3-6.8l7.5,0c39.6,0,68.3-39.5,81.9-63
			c0.3-0.4,0.3-0.8,0-1.2c-0.2-0.4-0.7-0.7-1.1-0.7c-0.2,0-0.4,0.1-0.7,0.2c-12.7,7.8-32.7,17-56.1,17c-33.4,0-66.8-19.7-81.4-29.6
			v25c0,33.4,8.2,66.4,23.7,95.5c26.1,49.2,57.3,124.6,57.3,204.5C1008.1,700.5,991.2,762.4,985.2,781.6z"/>
	</g>
	<g>
		<path fill="#252A30" d="M938.7,300.8l-2.4-1.5c-10.2-6.1-16.5-11-16.8-11.2l-1.8-1.4v-14.6c0-57.3,47.1-61.8,61.5-61.8
			c2.8,0,4.8,0.2,5.5,0.2c44.1,0.1,75.2,42.4,89.8,67.7c1.9,3.3,2,7.3,0.1,10.6c-1.9,3.3-5.5,5.4-9.2,5.4c-1.9,0-3.9-0.6-5.6-1.6
			c-11.6-7.1-30-15.6-51.2-15.6c-24.8,0-50.3,12.2-67.4,22.4L938.7,300.8z M927.1,282.1c2.2,1.6,6.3,4.4,11.7,7.8
			c18-10.5,44-22.3,69.8-22.3c23.5,0,43.5,9.3,56.1,17c0.2,0.1,0.5,0.2,0.7,0.2c0.4,0,0.9-0.3,1.1-0.7c0.2-0.4,0.2-0.7,0-1.2
			c-13.6-23.5-42.4-63-82-63l-0.5,0c0,0-1.8-0.2-4.7-0.2c-47,0-52.1,36.7-52.1,52.4V282.1z"/>
	</g>
	<g>
		<path fill="#252A30" d="M927.9,791c-10.5,0-10.5,0-11.9-1.5l-0.7-0.7l-0.3-1c-13.2-38.7-29-100-29.4-172.3
			c-0.2-28,2-56.5,6.6-84.8l0-4.3h51.4l0.3,5.3l-0.2,0.7c-7.6,29.9-11.4,58.8-11.4,86c0,97.3,24.1,165.6,24.4,166.3l2.3,6.3
			L927.9,791z M922.7,781.6c1.4,0,3.2,0,5.2,0l17.9,0c-6-19.3-22.9-81.2-22.9-163.1c0-26.2,3.5-54,10.3-82.6h-32.4
			c-4.1,26.6-6.1,53.4-5.9,79.7C895.3,684.6,910,743.5,922.7,781.6z"/>
	</g>
	<g>
		<path fill="#252A30" d="M1003.1,791l-31,0l2.3-6.3c0.2-0.7,24.4-69,24.4-166.3c0-27.2-3.8-56.1-11.4-86l-0.2-0.7l0.3-5.3h51.4
			l0,4.3c4.5,28.3,6.7,56.8,6.6,84.8c-0.4,72.3-16.2,133.6-29.4,172.3l-0.3,1l-0.7,0.7C1013.6,791,1013.6,791,1003.1,791z
			 M985.2,781.6l17.9,0c2,0,3.7,0,5.2,0c12.7-38.2,27.4-97,27.8-166.1c0.2-26.3-1.8-53-5.9-79.7h-32.4c6.8,28.6,10.3,56.4,10.3,82.6
			C1008.1,700.5,991.2,762.4,985.2,781.6z"/>
	</g>
	<g>
		<g>
			<path fill="none" d="M927.6,626l-34.5,27.2l-1.5-1.9c0.3,3.6,0.6,7.3,1,11.3l35.2-27.7C927.7,632,927.6,629,927.6,626z"/>
		</g>
		<g>
			<path fill="none" d="M929.5,666.5l-33.1,26c0.4,2.6,0.8,5.3,1.3,8l32.5-25.6C929.9,672.2,929.7,669.4,929.5,666.5z"/>
		</g>
		<g>
			<path fill="none" d="M928.2,646.5l-34.4,27.1c0.3,2.7,0.7,5.4,1,8.2l33.9-26.6C928.5,652.3,928.3,649.4,928.2,646.5z"/>
		</g>
		<g>
			<path fill="none" d="M929.7,582.4l-36.6,28.8l-2.9-3.6c0,2.7-0.1,5.3,0,8c0,1.8,0,4.1,0.1,6.9l38.4-30.2
				C929,589,929.3,585.7,929.7,582.4z"/>
		</g>
		<g>
			<path fill="none" d="M931.3,686l-31.8,25c0.5,2.6,1,5.2,1.5,7.8l31.2-24.6C932,691.6,931.7,688.8,931.3,686z"/>
		</g>
		<g>
			<path fill="none" d="M896.8,531.2C896.8,531.2,896.8,531.2,896.8,531.2c-0.1,0.9-0.3,1.7-0.4,2.6l3.3-2.6H896.8z"/>
		</g>
		<g>
			<path fill="none" d="M914.8,531.2l-20.4,16c-0.4,3.3-0.8,6.6-1.2,10l33-26H914.8z"/>
		</g>
		<g>
			<path fill="none" d="M939.1,531.4l0-0.2h-1.7l1.3,1.7C938.8,532.4,939,531.9,939.1,531.4z"/>
		</g>
		<g>
			<path fill="none" d="M933.2,558.7l-40.1,31.5l-2.2-2.9c-0.2,4.7-0.4,9.4-0.5,14.1l41.1-32.3C932,565.6,932.5,562.2,933.2,558.7z"
				/>
		</g>
		<g>
			<path fill="none" d="M935,549.2c1.1-5.3,2.3-10.5,3.6-15.7l-45.5,35.8l-0.9-1.1c-0.3,3.9-0.6,7.7-0.9,11.6l41.9-32.9L935,549.2z"
				/>
		</g>
		<g>
			<path fill="none" d="M927.9,604.8l-34.8,27.4l-2.7-3.4c0.1,4.1,0.3,8.8,0.6,14l36.6-28.8C927.6,611,927.7,607.9,927.9,604.8z"/>
		</g>
		<g>
			<path fill="none" d="M936.9,724.1l-29.3,22.7c0.6,2.4,1.3,4.9,2,7.4l28.8-22.5C937.8,729.3,937.3,726.7,936.9,724.1z"/>
		</g>
		<g>
			<path fill="none" d="M944.5,759.6l-27,21.2c0.6,1.8,1.2,3.7,1.8,5.5c0,0,0.9,0,2.4,0l24.6-19.5
				C945.7,764.6,945.1,762.2,944.5,759.6z"/>
		</g>
		<g>
			<path fill="none" d="M940.4,742l-28.1,22c0.7,2.4,1.4,4.8,2.2,7.3l27.6-21.7C941.5,747.2,940.9,744.6,940.4,742z"/>
		</g>
		<g>
			<path fill="none" d="M936.9,786.3c7.8,0,15.3,0,15.3,0s-1.2-3.4-3.1-9.7L936.9,786.3z"/>
		</g>
		<g>
			<path fill="none" d="M933.8,705.1l-30.5,24c0.6,2.6,1.2,5.2,1.8,7.8l30-23.3C934.6,710.8,934.2,708,933.8,705.1z"/>
		</g>
		<g>
			<path fill="#252A30" d="M899.6,531.2l-3.3,2.6c-0.7,4.5-1.3,9-1.9,13.4l20.4-16H899.6z"/>
		</g>
		<g>
			<path fill="#252A30" d="M938.6,533.5c0-0.2,0.1-0.4,0.1-0.6l-1.3-1.7h-11.1l-33,26c-0.4,3.6-0.8,7.3-1.1,10.9l0.9,1.1
				L938.6,533.5z"/>
		</g>
		<g>
			<path fill="#252A30" d="M933.2,558.7c0.6-3.2,1.2-6.4,1.9-9.6l-1.9-2.4l-41.9,32.9c-0.2,2.6-0.3,5.1-0.4,7.7l2.2,2.9L933.2,558.7
				z"/>
		</g>
		<g>
			<path fill="#252A30" d="M929.7,582.4c0.5-4.5,1.1-8.9,1.8-13.3l-41.1,32.3c0,2-0.1,4.1-0.1,6.1l2.9,3.6L929.7,582.4z"/>
		</g>
		<g>
			<path fill="#252A30" d="M927.9,604.8c0.2-4.2,0.5-8.4,0.8-12.6l-38.4,30.2c0,1.9,0.1,4,0.1,6.3l2.7,3.4L927.9,604.8z"/>
		</g>
		<g>
			<path fill="#252A30" d="M927.6,626c0-2.5-0.1-5-0.1-7.5c0-1.5,0-2.9,0-4.4L891,642.8c0.2,2.7,0.3,5.5,0.6,8.5l1.5,1.9L927.6,626z
				"/>
		</g>
		<g>
			<path fill="#252A30" d="M927.8,634.9l-35.2,27.7c0.3,3.5,0.7,7.2,1.2,11l34.4-27.1C928,642.7,927.9,638.8,927.8,634.9z"/>
		</g>
		<g>
			<path fill="#252A30" d="M928.7,655.2l-33.9,26.6c0.5,3.5,1,7.1,1.5,10.7l33.1-26C929.2,662.8,928.9,659,928.7,655.2z"/>
		</g>
		<g>
			<path fill="#252A30" d="M930.2,675l-32.5,25.6c0.6,3.4,1.2,6.9,1.9,10.5l31.8-25C930.9,682.4,930.6,678.7,930.2,675z"/>
		</g>
		<g>
			<path fill="#252A30" d="M932.3,694.3l-31.2,24.6c0.7,3.4,1.4,6.8,2.2,10.2l30.5-24C933.3,701.6,932.8,698,932.3,694.3z"/>
		</g>
		<g>
			<path fill="#252A30" d="M935.1,713.6l-30,23.3c0.8,3.3,1.6,6.6,2.5,10l29.3-22.7C936.3,720.7,935.7,717.2,935.1,713.6z"/>
		</g>
		<g>
			<path fill="#252A30" d="M938.3,731.7l-28.8,22.5c0.9,3.2,1.8,6.5,2.8,9.8l28.1-22C939.7,738.7,939,735.3,938.3,731.7z"/>
		</g>
		<g>
			<path fill="#252A30" d="M942,749.6l-27.6,21.7c1,3.2,2,6.3,3,9.5l27-21.2C943.7,756.5,942.9,753.2,942,749.6z"/>
		</g>
		<g>
			<path fill="#252A30" d="M946.3,766.9l-24.6,19.5c3.2,0,9.3,0,15.1,0l12.2-9.7C948.3,773.9,947.4,770.7,946.3,766.9z"/>
		</g>
	</g>
	<g>
		<g>
			<path fill="none" d="M999.5,687l39.5-31c0.3-3.4,0.5-6.6,0.7-9.6l-39.2,30.8C1000.2,680.5,999.9,683.8,999.5,687z"/>
		</g>
		<g>
			<path fill="none" d="M1003.4,618.5c0,0.8,0,1.7,0,2.5l36.4-28.6l0.6,0.7c-0.1-3.3-0.3-6.6-0.5-9.8l-36.6,28.8
				C1003.4,614.2,1003.4,616.3,1003.4,618.5z"/>
		</g>
		<g>
			<path fill="none" d="M1002.9,642.3l36.9-29l1,1.2c0-3.6,0-7.3-0.1-10.9l-37.5,29.5C1003.2,636.2,1003.1,639.3,1002.9,642.3z"/>
		</g>
		<g>
			<path fill="none" d="M998.3,696.9c-0.6,4.5-1.2,8.9-1.9,13.1l40.1-31.2c0.4-3.4,0.8-6.7,1.2-9.9l-38,29.9L998.3,696.9z"/>
		</g>
		<g>
			<path fill="none" d="M1001.7,664.3l38.2-30l0.5,0.7c0.2-3.9,0.3-7.4,0.3-10.4l-38.4,30.2C1002.1,658,1001.9,661.2,1001.7,664.3z"
				/>
		</g>
		<g>
			<path fill="none" d="M1006.5,786.3l6.9-5.4c1.2-3.8,2.4-7.5,3.6-11.3l-20.6,16.7C1000.1,786.3,1003.7,786.3,1006.5,786.3z"/>
		</g>
		<g>
			<path fill="none" d="M992,735.1l40.9-32.4c0.6-3.6,1.2-7.1,1.7-10.5l-40.5,31.5C993.5,727.6,992.7,731.5,992,735.1z"/>
		</g>
		<g>
			<path fill="none" d="M978.8,786.3c0,0,1,0,2.6,0l40.1-32.4c1.1-4,2.1-7.9,3.1-11.8l-42.4,33.4
				C980.1,782.5,978.8,786.3,978.8,786.3z"/>
		</g>
		<g>
			<path fill="none" d="M986.3,760.3l41.7-32.8c0.8-3.6,1.6-7.2,2.3-10.7l-41.4,32.8C988,753.4,987.2,757,986.3,760.3z"/>
		</g>
		<g>
			<path fill="none" d="M1002.9,600.4l36.3-28.5c-0.2-2.8-0.5-5.6-0.8-8.4l-36.1,28.4C1002.5,594.7,1002.7,597.6,1002.9,600.4z"/>
		</g>
		<g>
			<path fill="none" d="M1001.1,580.8l36.1-28.4c-0.3-2.7-0.7-5.5-1.1-8.2l-36.1,28.4C1000.4,575.3,1000.8,578.1,1001.1,580.8z"/>
		</g>
		<g>
			<path fill="none" d="M998.4,562l36.2-28.5c-0.1-0.8-0.2-1.6-0.4-2.3c0,0,0,0,0,0h-8.1l-29.1,22.9
				C997.4,556.7,997.9,559.3,998.4,562z"/>
		</g>
		<g>
			<path fill="none" d="M1010.9,531.2h-19l0,0.2c1,4.1,2,8.3,2.9,12.5L1010.9,531.2z"/>
		</g>
		<g>
			<path fill="#252A30" d="M996.9,554.1l29.1-22.9h-15.2l-16.1,12.6C995.6,547.2,996.3,550.6,996.9,554.1z"/>
		</g>
		<g>
			<path fill="#252A30" d="M1000.1,572.6l36.1-28.4c-0.5-3.6-1-7.1-1.6-10.7L998.4,562C999,565.5,999.5,569.1,1000.1,572.6z"/>
		</g>
		<g>
			<path fill="#252A30" d="M1002.2,591.9l36.1-28.4c-0.4-3.7-0.8-7.3-1.2-11l-36.1,28.4C1001.6,584.5,1001.9,588.2,1002.2,591.9z"/>
		</g>
		<g>
			<path fill="#252A30" d="M1003.3,612l36.6-28.8c-0.2-3.8-0.5-7.5-0.8-11.3l-36.3,28.5C1003.1,604.3,1003.2,608.1,1003.3,612z"/>
		</g>
		<g>
			<path fill="#252A30" d="M1003.4,621c0,4.1-0.1,8.1-0.2,12.1l37.5-29.5c-0.1-3.5-0.2-7-0.3-10.5l-0.6-0.7L1003.4,621z"/>
		</g>
		<g>
			<path fill="#252A30" d="M1002.9,642.3c-0.2,4.2-0.4,8.4-0.6,12.4l38.4-30.2c0.1-3.8,0.1-6.8,0.1-9c0-0.3,0-0.7,0-1l-1-1.2
				L1002.9,642.3z"/>
		</g>
		<g>
			<path fill="#252A30" d="M1001.7,664.3c-0.3,4.4-0.7,8.6-1.1,12.8l39.2-30.8c0.3-4.1,0.5-7.9,0.6-11.4l-0.5-0.7L1001.7,664.3z"/>
		</g>
		<g>
			<path fill="#252A30" d="M998.3,696.9l1.5,1.9l38-29.9c0.5-4.5,0.9-8.9,1.3-12.9l-39.5,31C999.1,690.3,998.7,693.6,998.3,696.9z"
				/>
		</g>
		<g>
			<path fill="#252A30" d="M994.2,723.7l40.5-31.5c0.7-4.6,1.3-9.1,1.9-13.4L996.4,710C995.7,714.7,995,719.3,994.2,723.7z"/>
		</g>
		<g>
			<path fill="#252A30" d="M988.9,749.5l41.4-32.8c1-4.8,1.8-9.5,2.6-14.1L992,735.1C991,740.3,989.9,745.1,988.9,749.5z"/>
		</g>
		<g>
			<path fill="#252A30" d="M982.2,775.5l42.4-33.4c1.2-5,2.4-9.9,3.4-14.6l-41.7,32.8C984.8,766.3,983.4,771.4,982.2,775.5z"/>
		</g>
		<g>
			<path fill="#252A30" d="M996.3,786.3l20.6-16.7c1.6-5.3,3.1-10.6,4.5-15.7l-40.1,32.4C984.7,786.3,990.6,786.3,996.3,786.3z"/>
		</g>
		<g>
			<path fill="#252A30" d="M1011.6,786.3c0.6-1.8,1.2-3.6,1.8-5.4l-6.9,5.4C1009.6,786.3,1011.6,786.3,1011.6,786.3z"/>
		</g>
	</g>
</g>
<g>
	<g>
		<path fill="#252A30" d="M1160.6,733.7c-11.6,0-21-9.4-21-21V508.9c0-11.6,9.4-21,21-21c11.6,0,21,9.4,21,21v203.8
			C1181.6,724.3,1172.1,733.7,1160.6,733.7z M1160.6,497.3c-6.4,0-11.6,5.2-11.6,11.6v203.8c0,6.4,5.2,11.6,11.6,11.6
			s11.6-5.2,11.6-11.6V508.9C1172.2,502.5,1167,497.3,1160.6,497.3z"/>
	</g>
	<g>
		<path fill="#252A30" d="M1160.6,798.3c-14.4,0-27.1-9.7-30.8-23.6l-2.1-7.8c-5.8-21.5-8.7-43.7-8.7-65.9V510.3
			c0-23.8,3.5-47.5,10.5-70.3c6.7-21.9,10.1-44.7,10.1-67.6v-43.3c-28.5-9.4-47-36.3-45.5-66.6c1.7-34.1,29.7-61.8,63.8-63.2
			c38-1.6,69.4,28.9,69.4,66.6c0,28.8-18.6,54.3-45.6,63.2v43.3c0,22.9,3.4,45.6,10.1,67.6c6.9,22.8,10.5,46.5,10.5,70.3v190.6
			c0,22.3-2.9,44.4-8.7,65.9l-2.1,7.8C1187.6,788.6,1175,798.3,1160.6,798.3z M1160.6,208.6c-0.8,0-1.6,0-2.4,0
			c-29.3,1.2-53.3,25-54.8,54.3c-1.3,27.1,16,51,42.1,58.1l3.5,0.9v50.4c0,23.8-3.5,47.5-10.5,70.3c-6.7,21.9-10.1,44.7-10.1,67.6
			v190.6c0,21.4,2.8,42.8,8.4,63.5l2.1,7.8c2.6,9.8,11.6,16.7,21.7,16.7c10.2,0,19.1-6.9,21.7-16.7l2.1-7.8
			c5.5-20.7,8.3-42.1,8.3-63.5V510.3c0-22.9-3.4-45.6-10.1-67.6c-6.9-22.8-10.5-46.5-10.5-70.3V322l3.5-0.9
			c24.8-6.8,42.2-29.5,42.2-55.2C1217.8,234.3,1192.1,208.6,1160.6,208.6z"/>
	</g>
	<g>
		<path fill="#252A30" d="M1160.6,279c-7.3,0-13.2-5.9-13.2-13.2c0-7.3,5.9-13.2,13.2-13.2c7.3,0,13.2,5.9,13.2,13.2
			C1173.8,273,1167.9,279,1160.6,279z M1160.6,261.9c-2.1,0-3.9,1.7-3.9,3.9c0,2.1,1.7,3.9,3.9,3.9c2.1,0,3.9-1.7,3.9-3.9
			C1164.4,263.6,1162.7,261.9,1160.6,261.9z"/>
	</g>
	<g>
		<path fill="#252A30" d="M1160.6,241.1c-7.3,0-13.2-5.9-13.2-13.2s5.9-13.2,13.2-13.2c7.3,0,13.2,5.9,13.2,13.2
			S1167.9,241.1,1160.6,241.1z M1160.6,224c-2.1,0-3.9,1.7-3.9,3.9c0,2.1,1.7,3.9,3.9,3.9c2.1,0,3.9-1.7,3.9-3.9
			C1164.4,225.8,1162.7,224,1160.6,224z"/>
	</g>
	<g>
		<path fill="#252A30" d="M1160.6,316.8c-7.3,0-13.2-5.9-13.2-13.2c0-7.3,5.9-13.2,13.2-13.2c7.3,0,13.2,5.9,13.2,13.2
			C1173.8,310.9,1167.9,316.8,1160.6,316.8z M1160.6,299.7c-2.1,0-3.9,1.7-3.9,3.9c0,2.1,1.7,3.9,3.9,3.9c2.1,0,3.9-1.7,3.9-3.9
			C1164.4,301.5,1162.7,299.7,1160.6,299.7z"/>
	</g>
	<g>
		<path fill="#252A30" d="M1160.6,279c-3.5,0-6.9-1.4-9.4-3.9c-5.2-5.2-5.2-13.6,0-18.7c2.5-2.5,5.8-3.9,9.4-3.9s6.9,1.4,9.4,3.9
			c5.2,5.2,5.2,13.6,0,18.7C1167.4,277.6,1164.1,279,1160.6,279z M1160.6,261.9c-1,0-2,0.4-2.7,1.1c-1.5,1.5-1.5,4,0,5.5
			c1.5,1.5,4,1.5,5.5,0c1.5-1.5,1.5-4,0-5.5C1162.6,262.3,1161.6,261.9,1160.6,261.9z"/>
	</g>
	<g>
		<path fill="#252A30" d="M1187.3,252.2c-3.5,0-6.9-1.4-9.4-3.9c-5.2-5.2-5.2-13.6,0-18.7c2.5-2.5,5.8-3.9,9.4-3.9
			c3.5,0,6.9,1.4,9.4,3.9c5.2,5.2,5.2,13.6,0,18.7C1194.2,250.8,1190.9,252.2,1187.3,252.2z M1187.3,235.1c-1,0-2,0.4-2.7,1.1
			c-1.5,1.5-1.5,4,0,5.5c1.5,1.5,4,1.5,5.5,0c1.5-1.5,1.5-4,0-5.5C1189.3,235.5,1188.4,235.1,1187.3,235.1z"/>
	</g>
	<g>
		<path fill="#252A30" d="M1133.8,305.8c-3.5,0-6.9-1.4-9.4-3.9c-5.2-5.2-5.2-13.6,0-18.7c2.5-2.5,5.8-3.9,9.4-3.9
			c3.5,0,6.9,1.4,9.4,3.9c5.2,5.2,5.2,13.6,0,18.7C1140.7,304.4,1137.3,305.8,1133.8,305.8z M1133.8,288.7c-1,0-2,0.4-2.7,1.1
			c-1.5,1.5-1.5,4,0,5.5c1.5,1.5,4,1.5,5.5,0c1.5-1.5,1.5-4,0-5.5C1135.8,289.1,1134.8,288.7,1133.8,288.7z"/>
	</g>
	<g>
		<path fill="#252A30" d="M1160.6,279c-7.3,0-13.2-5.9-13.2-13.2c0-7.3,5.9-13.2,13.2-13.2c7.3,0,13.2,5.9,13.2,13.2
			C1173.8,273.1,1167.9,279,1160.6,279z M1160.6,261.9c-2.1,0-3.9,1.7-3.9,3.9c0,2.1,1.7,3.9,3.9,3.9c2.1,0,3.9-1.7,3.9-3.9
			C1164.4,263.6,1162.7,261.9,1160.6,261.9z"/>
	</g>
	<g>
		<path fill="#252A30" d="M1198.4,279c-7.3,0-13.2-5.9-13.2-13.2c0-3.5,1.4-6.9,3.9-9.4c2.5-2.5,5.8-3.9,9.4-3.9
			c7.3,0,13.2,5.9,13.2,13.2C1211.7,273.1,1205.7,279,1198.4,279z M1198.4,261.9c-1,0-2,0.4-2.7,1.1c-0.7,0.7-1.1,1.7-1.1,2.7
			c0,2.1,1.7,3.9,3.9,3.9c2.1,0,3.9-1.7,3.9-3.9S1200.6,261.9,1198.4,261.9z"/>
	</g>
	<g>
		<path fill="#252A30" d="M1122.7,279c-7.3,0-13.2-5.9-13.2-13.2c0-7.3,5.9-13.2,13.2-13.2c7.3,0,13.2,5.9,13.2,13.2
			C1136,273.1,1130,279,1122.7,279z M1122.7,261.9c-2.1,0-3.9,1.7-3.9,3.9c0,2.1,1.7,3.9,3.9,3.9c2.1,0,3.9-1.7,3.9-3.9
			C1126.6,263.6,1124.8,261.9,1122.7,261.9z"/>
	</g>
	<g>
		<path fill="#252A30" d="M1160.6,279c-3.5,0-6.9-1.4-9.4-3.9c-5.2-5.2-5.2-13.6,0-18.7c2.5-2.5,5.8-3.9,9.4-3.9
			c3.5,0,6.9,1.4,9.4,3.9c5.2,5.2,5.2,13.6,0,18.7C1167.4,277.6,1164.1,279,1160.6,279z M1160.6,261.9c-1,0-2,0.4-2.7,1.1
			c-1.5,1.5-1.5,4,0,5.5c1.5,1.5,4,1.5,5.5,0c1.5-1.5,1.5-4,0-5.5C1162.6,262.3,1161.6,261.9,1160.6,261.9z"/>
	</g>
	<g>
		<path fill="#252A30" d="M1187.3,305.8c-3.5,0-6.9-1.4-9.4-3.9c-5.2-5.2-5.2-13.6,0-18.7c2.5-2.5,5.8-3.9,9.4-3.9
			c3.5,0,6.9,1.4,9.4,3.9c5.2,5.2,5.2,13.6,0,18.7C1194.2,304.4,1190.9,305.8,1187.3,305.8z M1187.3,288.7c-1,0-2,0.4-2.7,1.1
			c-1.5,1.5-1.5,4,0,5.5c1.5,1.5,4,1.5,5.5,0c1.5-1.5,1.5-4,0-5.5C1189.3,289.1,1188.4,288.7,1187.3,288.7z"/>
	</g>
	<g>
		<path fill="#252A30" d="M1133.8,252.2c-3.5,0-6.9-1.4-9.4-3.9c-5.2-5.2-5.2-13.6,0-18.7c2.5-2.5,5.8-3.9,9.4-3.9
			c3.5,0,6.9,1.4,9.4,3.9c5.2,5.2,5.2,13.6,0,18.7C1140.7,250.9,1137.3,252.2,1133.8,252.2z M1133.8,235.1c-1,0-2,0.4-2.7,1.1
			c-1.5,1.5-1.5,4,0,5.5c1.5,1.5,4,1.5,5.5,0c1.5-1.5,1.5-4,0-5.5C1135.8,235.5,1134.8,235.1,1133.8,235.1z"/>
	</g>
	<g>
		<g>
			<polygon fill="none" points="1144.3,625.5 1176.9,599.9 1176.9,591.1 1144.3,616.7 			"/>
		</g>
		<g>
			<polygon fill="none" points="1144.3,646 1176.9,620.3 1176.9,611.5 1144.3,637.2 			"/>
		</g>
		<g>
			<polygon fill="none" points="1144.3,605.1 1176.9,579.4 1176.9,570.6 1144.3,596.3 			"/>
		</g>
		<g>
			<polygon fill="none" points="1144.3,707.3 1176.9,681.7 1176.9,672.9 1144.3,698.5 			"/>
		</g>
		<g>
			<path fill="none" d="M1148.9,724.1l27.9-22v-8.8l-31.6,24.9C1146,720.5,1147.3,722.5,1148.9,724.1z"/>
		</g>
		<g>
			<polygon fill="none" points="1144.3,686.9 1176.9,661.2 1176.9,652.4 1144.3,678.1 			"/>
		</g>
		<g>
			<path fill="none" d="M1160.6,729L1160.6,729c8.6,0,15.7-6.7,16.2-15.2l-19,14.9C1158.7,728.9,1159.6,729,1160.6,729z"/>
		</g>
		<g>
			<polygon fill="none" points="1144.3,584.6 1176.9,559 1176.9,550.2 1144.3,575.8 			"/>
		</g>
		<g>
			<polygon fill="none" points="1144.3,666.4 1176.9,640.8 1176.9,632 1144.3,657.6 			"/>
		</g>
		<g>
			<polygon fill="none" points="1144.3,543.7 1176.9,518.1 1176.9,509.3 1144.3,534.9 			"/>
		</g>
		<g>
			<path fill="none" d="M1146.2,501.3l10.3-8.1C1152,494.3,1148.3,497.3,1146.2,501.3z"/>
		</g>
		<g>
			<path fill="none" d="M1144.3,523.2l29.8-23.4c-1.3-2-3.1-3.6-5.1-4.8l-24.7,19.4V523.2z"/>
		</g>
		<g>
			<polygon fill="none" points="1144.3,564.2 1176.9,538.5 1176.9,529.7 1144.3,555.3 			"/>
		</g>
		<g>
			<path fill="#252A30" d="M1160.6,492.6c-1.4,0-2.8,0.2-4.1,0.5l-10.3,8.1c-1.2,2.3-1.9,4.9-1.9,7.6v5.5L1169,495
				C1166.5,493.5,1163.7,492.6,1160.6,492.6L1160.6,492.6z"/>
		</g>
		<g>
			<path fill="#252A30" d="M1144.3,534.9l32.6-25.6v-0.3c0-3.4-1-6.5-2.8-9.1l-29.8,23.4V534.9z"/>
		</g>
		<g>
			<polygon fill="#252A30" points="1144.3,555.3 1176.9,529.7 1176.9,518.1 1144.3,543.7 			"/>
		</g>
		<g>
			<polygon fill="#252A30" points="1144.3,575.8 1176.9,550.2 1176.9,538.5 1144.3,564.2 			"/>
		</g>
		<g>
			<polygon fill="#252A30" points="1144.3,596.3 1176.9,570.6 1176.9,559 1144.3,584.6 			"/>
		</g>
		<g>
			<polygon fill="#252A30" points="1144.3,616.7 1176.9,591.1 1176.9,579.4 1144.3,605.1 			"/>
		</g>
		<g>
			<polygon fill="#252A30" points="1144.3,637.2 1176.9,611.5 1176.9,599.9 1144.3,625.5 			"/>
		</g>
		<g>
			<polygon fill="#252A30" points="1144.3,657.6 1176.9,632 1176.9,620.3 1144.3,646 			"/>
		</g>
		<g>
			<polygon fill="#252A30" points="1144.3,678.1 1176.9,652.4 1176.9,640.8 1144.3,666.4 			"/>
		</g>
		<g>
			<polygon fill="#252A30" points="1144.3,698.5 1176.9,672.9 1176.9,661.2 1144.3,686.9 			"/>
		</g>
		<g>
			<path fill="#252A30" d="M1144.3,712.7c0,1.9,0.4,3.8,1,5.5l31.6-24.9v-11.6l-32.6,25.6V712.7z"/>
		</g>
		<g>
			<path fill="#252A30" d="M1157.8,728.8l19-14.9c0-0.4,0.1-0.7,0.1-1.1v-10.6l-27.9,22C1151.3,726.5,1154.4,728.2,1157.8,728.8z"/>
		</g>
	</g>
</g>
</svg>
