<svg id="Layer_1" data-name="Layer 1" xmlns="http://www.w3.org/2000/svg" xmlns:xlink="http://www.w3.org/1999/xlink" viewBox="0 0 82.71 52.76"><defs><style>.cls-1{fill:url(#linear-gradient);}.cls-2{font-size:29.97px;fill:#00dbff;font-family:SegoeScript, Segoe Script;}</style><linearGradient id="linear-gradient" x1="4.41" y1="24.59" x2="47.03" y2="24.59" gradientUnits="userSpaceOnUse"><stop offset="0" stop-color="#00ffcb"/><stop offset="0.63" stop-color="#08e5ef"/><stop offset="1" stop-color="#0cdaff"/></linearGradient></defs><title>logo</title><path class="cls-1" d="M43.86,9.2A11.75,11.75,0,0,0,35.3,5.53c-2.59,0-5.39,1.4-7.44,2.45a12.33,12.33,0,0,1-2.07.93,12.7,12.7,0,0,1-2.05-1c-2-1.08-4.81-2.55-7.42-2.57A11.69,11.69,0,0,0,4.41,17.09C4.38,21.48,6,27.74,8.8,33.83a39.93,39.93,0,0,0,3.82,6.78c1.5,2,2.79,3,3.94,3.06a2.07,2.07,0,0,0,2-1.55c.52-1.33,1-2.85,1.49-4.47,1.32-4.27,3-9.59,5.55-9.57h.17c1.15,0,2.17.94,3.13,2.86a41.36,41.36,0,0,1,2.36,6.84c.46,1.61.89,3.13,1.38,4.44a2.06,2.06,0,0,0,1.94,1.58c1.15,0,2.46-1,4-3A40.69,40.69,0,0,0,42.46,34c.34-.73.66-1.46,1-2.18l-.5-.11c-.41-.1-.8-.21-1.19-.34-.28.65-.57,1.31-.88,2a39.82,39.82,0,0,1-3.74,6.51c-1.38,1.86-2.27,2.4-2.54,2.35s-.18-.14-.31-.48c-.46-1.26-.89-2.75-1.34-4.33a43.31,43.31,0,0,0-2.46-7.12c-1.27-2.54-2.81-3.78-4.7-3.8H25.6c-1.82,0-3.34,1.2-4.63,3.7a44.53,44.53,0,0,0-2.6,7c-.49,1.59-.95,3.08-1.45,4.36-.11.28-.15.46-.35.49s-.83,0-2.52-2.35a39.22,39.22,0,0,1-3.65-6.5c-2.65-5.81-4.28-12-4.25-16.09A10,10,0,0,1,16.31,7a12.35,12.35,0,0,1,5.76,1.93c.29.17.69.47,1.09.76l.45.33a19.35,19.35,0,0,0,1.81,1.17,9.72,9.72,0,0,0,1.12.56,13.4,13.4,0,0,0,5,1,14.06,14.06,0,0,0,2.95-.27s.26-.07.26-.13-.27-.07-.27-.07a29.72,29.72,0,0,1-5.14-.77,6.62,6.62,0,0,1-2.39-1,8.72,8.72,0,0,1,1.76-1.1c1.88-.95,4.46-2.26,6.6-2.25A10,10,0,0,1,45.23,16a10.79,10.79,0,0,1,1.34.24l.46.11A11.89,11.89,0,0,0,43.86,9.2Z" transform="translate(-4.41 -5.38)"/><text class="cls-2" transform="translate(34.35 37.25) rotate(0.81) scale(0.69 1)">iller</text></svg>